# xmcd CD database file
#
# Track frame offsets:
#	150
#	17240
#	32227
#	48394
#	65180
#	76680
#	90948
#	106582
#	119367
#	137740
#	154028
#	165863
#
# Disc length: 2423 seconds
#
# Revision: 0
# Processed by: cddbd v1.5.1PL2 Copyright (c) Steve Scherf et al.
# Submitted via: CDex 1.60beta1-cs1
#
DISCID=8909750c
DTITLE=Blaine Larsen - Rockin' You Tonight
DYEAR=2006
DGENRE=Country
TTITLE0=I Don't Know What She Said
TTITLE1=Let Alone Yo
TTITLE2=Rockin' You Tonight
TTITLE3=Baby Don't Get Hooked On Me
TTITLE4=No Woman
TTITLE5=They Don't Grow Enough Roses
TTITLE6=I'm In Love With A Married Woman
TTITLE7=Spoken Like A Man
TTITLE8=Lips Of A Bottle (Duet With Gretchen Wilson
TTITLE9=Someone Is Me
TTITLE10=I Don't Wanna Work That Hard
TTITLE11=At The Gate
EXTD=YEAR: 2006
EXTT0=
EXTT1=
EXTT2=
EXTT3=
EXTT4=
EXTT5=
EXTT6=
EXTT7=
EXTT8=
EXTT9=
EXTT10=
EXTT11=
PLAYORDER=
